<?xml version="1.0" encoding="UTF-8" standalone="no"?>
<!-- Generator: Adobe Illustrator 16.0.0, SVG Export Plug-In . SVG Version: 6.00 Build 0)  -->

<svg
   xmlns:dc="http://purl.org/dc/elements/1.1/"
   xmlns:cc="http://creativecommons.org/ns#"
   xmlns:rdf="http://www.w3.org/1999/02/22-rdf-syntax-ns#"
   xmlns:svg="http://www.w3.org/2000/svg"
   xmlns="http://www.w3.org/2000/svg"
   xmlns:sodipodi="http://sodipodi.sourceforge.net/DTD/sodipodi-0.dtd"
   xmlns:inkscape="http://www.inkscape.org/namespaces/inkscape"
   version="1.1"
   id="Logo5_xA0_Image_1_"
   x="0px"
   y="0px"
   width="5000px"
   height="5000px"
   viewBox="0 0 5000 5000"
   enable-background="new 0 0 5000 5000"
   xml:space="preserve"
   inkscape:version="0.91 r13725"
   sodipodi:docname="machine-shop.svg"><metadata
     id="metadata117"><rdf:RDF><cc:Work
         rdf:about=""><dc:format>image/svg+xml</dc:format><dc:type
           rdf:resource="http://purl.org/dc/dcmitype/StillImage" /><dc:title></dc:title></cc:Work></rdf:RDF></metadata><defs
     id="defs115" /><sodipodi:namedview
     pagecolor="#ffffff"
     bordercolor="#666666"
     borderopacity="1"
     objecttolerance="10"
     gridtolerance="10"
     guidetolerance="10"
     inkscape:pageopacity="0"
     inkscape:pageshadow="2"
     inkscape:window-width="1916"
     inkscape:window-height="1157"
     id="namedview113"
     showgrid="false"
     inkscape:zoom="0.0472"
     inkscape:cx="-7309.322"
     inkscape:cy="1652.5424"
     inkscape:window-x="1600"
     inkscape:window-y="20"
     inkscape:window-maximized="0"
     inkscape:current-layer="Logo5_xA0_Image_1_" /><path
     fill-rule="evenodd"
     clip-rule="evenodd"
     fill="#51758D"
     d="M1816.393,4277.417c-11.724,5.006-21.568,13.05-32.149,19.899  c-12.82,8.299-12.914,8.434-23.312-1.885c-20.288-20.131-40.375-40.465-60.691-60.568c-5.648-5.589-11.809-10.66-17.733-15.969  c-7.598-3.085-13.124-8.836-18.764-14.477c-94.368-94.377-188.842-188.65-282.866-283.369c-5.722-5.763-19.19-10.364-9.943-23.405  c11.521-4.116,22.51,0.002,33.39,2.521c161.219,37.326,324.333,63.397,488.8,80.756c78.082,8.242,156.426,13.736,234.917,17.734  c102.462,5.219,204.928,9.35,307.459,6.973c82.469-1.911,164.903-5.457,247.31-10.603c159.133-9.937,316.945-29.677,473.978-56.597  c24.968-4.281,49.564-10.719,74.616-14.163c20.355-2.799,29.559-13.427,33.959-32.919c8.653-38.328,9.476-38.145-28.084-30.614  c-147.792,29.629-296.859,50.806-446.922,64.228c-72.876,6.518-146.026,10.188-219.169,13.881  c-103.288,5.214-206.495,2.83-309.706,2.659c-91.829-0.151-183.479-7.133-275.075-14.418  c-136.963-10.894-272.808-29.763-408.064-53.296c-63.037-10.968-125.527-24.729-187.847-39.199  c-9.434-2.19-20.218-3.123-24.668-14.336c-0.612-10.98,6.705-18.529,12.125-26.706c46.397-69.995,92.161-140.44,140.152-209.331  c14.604-20.963,14.103-36.927,1.222-57.675c-40.237-64.808-72.067-133.658-93.762-206.986c-1.512-5.11-4.476-10.085-4.604-15.265  c-0.768-30.906-20.077-38.237-46.866-42.29c-100.796-15.25-201.22-32.907-301.781-49.675c-33.471-5.582-33.698-5.74-33.706-38.967  c-0.039-181.284-0.038-362.568,0-543.852c0.008-34.418,0.77-35.529,34.58-39.877c99.062-12.74,198.239-24.565,297.556-35.137  c15.309-1.629,23.861-8.812,29.28-22.771c17.603-45.338,33.901-91.161,51.8-136.396c15.002-37.913,32.847-74.414,52.146-110.151  c8.563-15.856,6.925-27.713-2.766-42.076c-58.521-86.741-116.274-174-174.342-261.048c-19.439-29.143-19.252-31.261,5.128-55.684  c52.266-52.356,104.579-104.667,156.956-156.913c6.546-6.529,12.377-14.168,22.076-16.562c6.622-3.503,11.208-9.331,16.361-14.479  c69.645-69.578,139.251-139.196,208.867-208.805c1.881-1.882,3.718-3.81,5.644-5.645c8.685-8.278,8.972-8.402,18.245-1.642  c24.72,18.02,49.364,36.143,74.029,54.237c17.159,12.588,34.282,25.225,51.466,37.778c4.255,3.108,8.215,6.926,14.022,6.95  c12.28,4.145,21.577,12.966,31.65,20.485c12.032,8.983,23.463,18.903,39.416,20.211c3.83,8.736,9.341,15.887,17.447,21.301  c18.851,12.59,36.961,26.282,54.614,40.446c13.953,11.193,26.278,11.736,41.659,2.385c44.441-27.022,90.355-51.372,138.483-71.35  c34.522-14.33,69.725-26.688,106.178-34.976c12.383-2.815,20.659-7.769,22.931-21.098c13.65-80.119,28.35-160.064,39.453-240.646  c4.641-32.388,11.15-64.409,16.631-96.606c2.633-15.462,10.564-23.568,26.8-23.553c173.981,0.166,347.964-1.283,521.906,0.746  c8.324,0.635,15.212,4.55,20.849,10.393c21.426,22.207,46.268,41.725,57.545,72.079c9.382,90.714,20.743,181.209,29.884,271.938  c1.612,16.005,7.891,23.328,22.948,27.485c43.057,11.89,84.963,27.201,125.455,46.172c8.586,5.188,17.51,9.728,26.959,13.233  c9.87,11.443,13.27,26.018,18.517,39.561c31.306,80.811,58.57,163.008,81.661,246.523c4.32,15.629,10.361,20.515,26.541,16.001  c37.212-10.38,75.17-17.868,112.801-26.637c26.791-6.243,27.74-7.519,20.891-33.489c-18.525-70.245-39.78-139.663-63.695-208.273  c-3.192-9.16-8.798-18.296-4.6-28.788c12.976-5.647,23.384-15.188,34.613-23.368c61.926-45.115,123.633-90.534,185.293-136.013  c14.97-11.042,14.085-9.743,25.998,2.163c137.647,137.568,275.273,275.16,412.957,412.691c14.234,14.218,11.812,12.674,2.191,25.807  c-38.59,52.678-77.191,105.346-115.754,158.043c-5.112,6.986-10.026,14.119-15.032,21.184  c-1.894,14.888-13.775,23.729-21.456,35.066c-7.795,11.51-16.848,22.162-23.588,34.441c-7.017,11.401-14.883,22.223-23.403,32.436  c-10.333,12.385-10.826,24.265-3.468,38.545c26.866,52.14,52.842,104.732,75.68,158.806c11.941,28.272,22.539,57.061,31.406,86.412  c4.389,14.528,12.436,21.414,27.797,24.01c103.84,17.547,207.782,34.477,311.604,52.134c3.943,0.67,7.867,1.443,11.781,2.268  c27.344,5.758,32.217,11.236,32.329,38.95c0.265,65.327,0.085,130.656,0.089,195.983c0.008,113.991,0.022,227.981-0.008,341.973  c-0.011,38.589-1.209,40.773-39.729,48.752c-82.883,17.168-165.99,33.242-249.024,49.658c-18.75,3.707-28.085,12.308-33.575,30.953  c-23.796,80.824-56.016,158.355-98.875,231.002c-11.928,20.219-15.925,37.429,1.633,55.527c1.823,1.879,2.504,4.674,3.285,7.215  c0.271,16.06-13.723,18.438-23.835,23.16c-67.019,31.305-134.767,60.938-204.271,86.402c-35.663,13.066-71.3,26.221-107.294,38.334  c-12.631,4.25-20.134,11.679-23.37,24.623c-4.172,16.69-9.891,32.982-14.839,51.966c40.659-9.46,78.116-22.704,115.408-36.155  c96.568-34.832,192.281-71.797,283.814-118.736c6.088-3.121,12.597-8.593,20.195-2.653c9.213,13.03,18.237,26.2,27.673,39.067  c38.951,53.123,78.03,106.154,117.054,159.224c1.576,2.144,3.163,4.287,4.604,6.522c4.227,6.557,4.153,8.664-0.652,14.028  c-2.219,2.476-4.664,4.747-7.016,7.101c-135.502,135.563-271.004,271.126-406.509,406.686c-3.765,3.766-7.44,7.631-11.367,11.22  c-5.337,4.878-7.628,5.142-13.985,0.575c-17.294-12.42-34.412-25.082-51.586-37.668c-30.055-22.025-60.07-44.105-90.184-66.053  c-4.281-3.119-9.013-5.62-13.536-8.407c-21.979-5.795-35.991-23.81-54.133-35.502c-22.15-14.275-41.53-32.548-64.484-45.77  c-3.026-1.743-4.731-4.468-4.612-8.155c18.924-61.122,38.512-122.031,54.979-183.848c43.636-163.795,75.71-329.827,97.614-497.949  c12.4-95.177,20.25-190.74,26.139-286.388c7.453-121.056,8.06-242.484,4.06-363.64c-4.614-139.751-15.598-279.215-34.978-417.853  c-0.553-3.957-0.775-7.961-1.408-11.912c-3.605-22.5-6.038-24.384-28.871-19.958c-37.298,7.23-74.578,14.569-111.734,22.492  c-22.918,4.887-24.629,7.027-21.992,29.3c7.598,64.163,15.899,128.213,21.396,192.646c4.302,50.434,7.167,100.965,9.552,151.428  c4.339,91.801,7.518,183.776,4.487,275.696c-7.01,212.603-24.832,424.179-64.765,633.435  c-35.208,184.504-86.702,364.212-159.403,537.617c-2.57,6.13-4.48,12.613-9.779,17.161c-25.21,10.145-50.789,19.448-77.527,24.649  c-14.472,2.815-21.991,10.234-23.954,24.783c-2.039,15.107-4.617,30.147-6.455,45.297c-9.784,50.812-18.384,101.814-25.335,153.073  c-7.179,26.478-26.812,45.21-42.48,66.158c-19.015,25.422-39.631,49.711-60.798,73.442c-7.871,8.827-15.224,18.984-29.462,17.208  c-92.329,0.65-184.62-0.95-276.874,0.945c-69.237-3.63-138.557-0.704-207.844-1.626c-7.997-0.106-15.998-0.188-23.99-0.131  c-13.457,0.094-20.787-5.797-22.878-19.571c-4.301-28.327-10.335-56.37-14.861-84.669c-13.051-81.586-27.067-163.014-40.421-244.548  c-2.872-17.542-10.004-28.484-27.191-35.292c-84.24-33.365-167.833-68.331-250.061-106.438c-13.156-6.098-22.915-0.738-33.225,6.146  c-73.16,48.858-146.361,97.655-219.609,146.383C1835.888,4269.191,1827.491,4276.041,1816.393,4277.417z"
     id="path5" /><path
     fill-rule="evenodd"
     clip-rule="evenodd"
     fill="#FCB326"
     d="M1511.02,1752.888c-3.251,6.846-9.374,11.19-14.508,16.334  c-56.039,56.151-112.123,112.259-168.323,168.249c-17.663,17.598-14.672,15.146-2.992,32.729  c61.21,92.147,122.645,184.146,184.004,276.192c0.739,1.109,1.413,2.287,2.299,3.27c8.737,9.697,8.392,18.476,1.594,30.281  c-29.317,50.915-52.808,104.604-72.841,159.852c-12.713,35.062-26.562,69.712-39.281,104.771  c-2.92,8.048-7.394,12.122-15.539,13.043c-4.622,0.522-9.177,1.772-13.805,2.111c-30.575,2.232-60.865,6.778-91.233,10.771  c-27.712,3.643-55.555,6.284-83.315,9.575c-40.327,4.782-80.629,9.776-120.95,14.614c-7.276,0.873-14.629,1.158-21.876,2.203  c-8.056,1.162-10.532,3.893-11.044,11.593c-0.309,4.647-0.133,9.329-0.133,13.995c-0.005,185.328-0.007,370.655,0,555.982  c0.001,23.965-1.856,23.449,22.673,27.311c64.433,10.144,128.6,21.952,192.934,32.737c44.635,7.482,89.352,14.489,134.068,21.472  c24.406,3.812,24.523,3.57,29.85,26.75c15.79,68.723,43.118,132.899,76.812,194.529c11.824,21.627,23.936,43.118,36.659,64.224  c4.905,8.136,4.237,14.182-0.927,21.806c-27.655,40.828-54.805,82-82.23,122.985c-28.156,42.079-56.429,84.081-84.651,126.116  c-7.878,11.562-18.706,7.562-28.852,5.037c-56.701-14.111-112.949-29.885-168.652-47.523c-18.354-5.812-36.805-11.311-55.108-17.246  c-6.894-2.234-16.439-2.695-16.662-13.672c7.111-11.229,14.15-22.504,21.355-33.673c5.418-8.398,10.903-16.761,16.632-24.948  c3.931-5.619,3.796-10.738,0.364-16.643c-11.715-20.157-23.078-40.52-34.604-60.787c-32.757-57.6-58.286-118.232-76.116-182.059  c-2.86-10.239-4.877-20.723-7.048-31.144c-1.24-5.955-4.576-9.32-10.548-10.353c-20.993-3.629-41.958-7.43-62.963-10.98  c-53.163-8.99-106.329-17.961-159.52-26.782c-43.335-7.188-86.708-14.145-130.062-21.227c-2.616-0.427-5.249-0.882-7.785-1.628  c-2.756-0.812-4.662-2.985-4.946-5.69c-0.554-5.273-0.739-10.606-0.74-15.915c-0.033-186.614-0.027-373.229-0.026-559.843  c0-2.666-0.062-5.333,0.009-7.997c0.369-13.804,1.805-15.349,16.252-17.042c47.618-5.581,95.256-10.985,142.854-16.726  c48.91-5.896,97.776-12.148,146.673-18.152c12.547-1.541,25.253-1.212,37.745-3.881c7.287-1.557,11.494-4.832,14.133-12.025  c12.845-35.012,26.609-69.689,39.274-104.764c20.41-56.527,44.556-111.345,74.613-163.384c5.7-9.868,4.646-16.598-1.244-25.235  c-21.771-31.928-43.022-64.213-64.458-96.371c-23.652-35.483-47.258-70.998-70.967-106.443c-4.437-6.633-9.268-13.004-13.917-19.496  c-18.207-18.207-29.741-41.081-43.603-62.328c-1.073-3.116-1.877-6.359-3.285-9.316c-1.984-4.168-1.333-7.712,1.671-10.947  c2.719-2.928,5.518-5.785,8.344-8.609c136.193-136.14,272.397-272.268,408.587-408.41c18.046-18.041,13.832-15.517,31.876-2.367  c43.064,31.383,85.874,63.115,128.807,94.68C1501.177,1746.044,1506.126,1749.428,1511.02,1752.888z"
     id="path7" /><path
     fill-rule="evenodd"
     clip-rule="evenodd"
     fill="#01B0AB"
     d="M3223.545,4196.018c8.56-13.502,13.516-28.732,19.33-43.369  c16.941-42.646,34.111-85.33,48.072-128.996c15.78-49.357,33.378-98.207,45.42-148.761c6.309-26.488,14.85-52.44,21.366-78.885  c7.94-32.223,15.206-64.625,22.034-97.104c6.822-32.452,13.213-65.013,18.918-97.679c5.135-29.402,9.102-59.008,13.55-88.529  c3.655-24.257,7.479-48.492,10.806-72.795c2.069-15.123,3.207-30.37,5.023-45.531c2.128-17.773,4.535-35.514,6.834-53.266  c0.171-1.32,0.55-2.618,0.649-3.939c1.55-20.534,1.78-41.271,4.929-61.555c3.783-24.373,1.232-49.211,6.725-73.341  c0.293-1.286,0.375-2.655,0.326-3.978c-1.458-39.995,5.529-79.662,4.627-119.642c-0.256-11.325-0.919-22.782,0.368-33.976  c6.267-54.479,2.017-109.123,3.225-163.672c0.325-14.657,1.13-29.456-0.382-43.972c-3.872-37.174-1.236-74.582-4.366-111.622  c-1.967-23.273-0.656-46.679-3.69-69.641c-3.227-24.417-0.978-49.229-6.535-73.361c-0.443-1.925-0.58-3.993-0.446-5.967  c1.491-22.085-3.241-43.773-5.219-65.555c-1.364-15.029-1.712-30.488-5.691-45.374c-2.919-10.918-2.276-22.376-4.035-33.587  c-3.385-21.584-4.827-43.501-8.392-65.131c-0.614-3.724,2.294-5.889,5.917-6.735c10.998-2.572,21.929-5.471,32.992-7.722  c37.716-7.675,75.477-15.127,113.221-22.659c2.604-0.521,5.194-1.183,7.825-1.482c11.253-1.278,13.545,0.494,15.067,12.473  c4.185,32.901,7.849,65.873,12.42,98.72c3.479,25.004,4.492,50.321,8.413,75.145c3.227,20.425,0.817,41.324,6.671,61.337  c-1.195,25.369,4.093,50.35,4.528,75.627c0.218,12.616-0.348,25.237,2.936,37.731c1.485,5.656,0.573,11.931,0.837,17.921  c1.082,24.565-1.6,49.298,3.543,73.702c0.944,4.484,0.351,9.306,0.352,13.971c0.015,85.33,0.013,170.658,0.013,255.988  c-4.329,32.434-1.513,65.271-4.666,97.61c-2.513,25.775-0.497,51.902-6.221,77.384c-0.719,3.203-0.729,6.656-0.527,9.961  c1.556,25.404-5.515,50.268-4.658,75.618c-5.935,17.956-3.214,36.928-6.487,55.359c-2.751,15.487-2.914,31.683-5.19,47.469  c-5.018,34.782-7.582,69.886-14.587,104.424c-3.951,19.481-6.116,39.321-9.226,58.978c-2.903,18.353-5.79,36.712-9.044,55.004  c-4.994,28.078-10.18,56.123-15.521,84.137c-2.487,13.041-5.312,26.027-8.36,38.951c-13.263,56.232-25.988,112.605-40.26,168.584  c-9.024,35.398-20.345,70.217-30.8,105.246c-5.324,17.836-10.802,35.633-16.603,53.318c-4.553,13.879-9.708,27.559-14.596,41.328  c4.426,6.559,1.324,12.757-0.895,19.01c-33.662,94.871-72.562,187.465-120.128,276.289c-3.118,5.825-5.474,12.269-11.884,15.602  c-10.819,18.273-21.626,36.553-32.459,54.817c-33.984,57.3-70.409,112.987-111.402,165.538  c-59.375,76.113-128.211,142.531-208.071,196.859c-50.862,34.6-105.483,61.906-165.886,76.418  c-23.916,5.746-47.602,12.207-71.938,16.309c-57.326,9.662-114.138,6.825-170.424-6.287c-33.646-7.839-67.231-16.229-99.328-29.554  c-41.976-17.427-81.624-39.057-118.323-65.827c-32.272-23.543-63.815-48.04-92.878-75.582  c-16.912-16.027-33.734-32.102-48.308-50.354c4.031-6.735,10.991-7.357,17.524-7.36c94.406-0.05,188.822-2.045,283.186,0.904  c30.604,10.837,59.771,26.021,92.306,31.39c99.891,16.481,191.467-4.303,275.604-60.342c31.686-21.103,61.047-44.931,89.195-70.399  c5.395-4.881,10.043-10.815,17.893-12.017c9.088-6.836,16.928-14.885,23.517-24.155c1.155-1.624,2.094-3.503,3.546-4.8  c19.479-17.402,33.654-39.35,50.065-59.313c16.389-19.937,30.363-41.857,45.396-62.909c-1.368-10.255,5.173-17.449,10.029-25.154  c20.886-33.133,40.126-67.2,58.402-101.824c18.584-35.999,36.212-72.454,52.597-109.505  C3215.01,4205.84,3217.271,4199.539,3223.545,4196.018z"
     id="path9" /><path
     fill-rule="evenodd"
     clip-rule="evenodd"
     fill="#01B0AB"
     d="M3432.578,1684.826c23.248,67.08,46.536,134.142,64.179,202.999  c4.277,16.697,9.536,33.142,13.903,49.817c3.218,12.292,1.247,15.485-10.894,18.358c-34.177,8.087-68.419,15.89-102.603,23.944  c-14.84,3.497-29.587,7.385-44.4,10.997c-7.119,1.736-10.977-0.044-12.994-7.739c-15.824-60.378-34.787-119.824-55.3-178.741  c-12.872-36.972-27.365-73.38-41.192-110.017c-1.854-4.914-4.065-9.692-6.111-14.533c-6.898-3.186-9.287-9.809-12.26-16.002  c-47.936-111.652-102.743-219.49-175.957-317.116c-6.738-8.985-14.063-17.612-17.073-28.804  c-20.012-26.98-41.635-52.496-67.48-74.17c-8.61-3.912-15.585-9.885-22.361-16.44c-46.952-45.43-100.239-81.438-161.136-105.431  c-94.311-37.156-186.998-32.722-278.753,10.406c-82.771,38.906-147.147,99.917-206.374,167.423  c-14.92,17.005-28.775,34.99-42.215,53.241c-5.18,7.033-10.625,13.802-19.92,15.767c-64.387,3.19-128.766,1.196-193.134,1.083  c-5.976-0.01-11.973-1.082-16.243-6.142c4.388-11.947,11.682-22.312,18.313-32.991c29.087-46.833,59.194-93.02,93.388-136.317  c34.6-43.812,71.345-85.698,113.1-123.045c37.693-33.715,77.216-64.922,119.932-92.037c1.067-0.678,1.802-1.879,2.691-2.835  c2.959-4.27,7.681-5.902,12.168-5.409c15.766,1.736,25.989-5.494,33.004-18.753c51.851-25.409,107.041-40.506,163.471-50.735  c61.764-11.196,123.371-7.705,184.157,7.879c32.215,8.26,64.571,16.143,95.261,29.465c39.84,17.294,77.837,37.883,112.826,63.655  c28.416,20.932,56.391,42.397,82.627,66.158c35.655,32.291,68.132,67.455,98.732,104.453  c44.258,53.512,82.54,111.21,118.345,170.554c54.127,89.713,99.147,183.926,137.177,281.515  C3417.183,1645.122,3424.871,1664.979,3432.578,1684.826z"
     id="path11" /><path
     fill-rule="evenodd"
     clip-rule="evenodd"
     fill="#ACAD36"
     d="M1098.988,3742.98c7.364,7.667,17.857,8.194,27.05,11.476  c13.694,4.89,27.747,8.788,41.695,12.951c38.03,11.351,75.793,23.601,114.389,33.033c21.835,5.336,43.573,11.144,65.126,17.511  c7.613,2.25,14.229,1.913,21.015-1.568c0.509,3.352,1.127,6.518,5.178,7.555c9.663,2.473,19.198,5.523,28.949,7.559  c54.631,11.4,109.25,22.875,163.998,33.689c28.658,5.661,57.562,10.089,86.375,14.951c22.263,3.756,44.506,7.674,66.851,10.877  c24.33,3.487,48.776,6.152,73.153,9.32c26.341,3.424,52.663,6.99,78.987,10.542c13.838,1.866,27.793,1.694,41.704,3.921  c19.636,3.144,39.703,3.57,59.577,5.262c26.48,2.253,52.952,4.608,79.429,6.91c2.654,0.231,5.313,0.555,7.972,0.568  c41.293,0.209,82.492,3.424,123.672,5.522c111.256,5.669,222.498,3.173,333.727,2.102c35.858-0.346,71.883-1.763,107.705-4.197  c20.58-1.398,41.422-0.819,61.679-3.874c23.794-3.589,47.768-2.323,71.568-5.836c18.942-2.795,38.416-2.756,57.587-5.055  c22.417-2.687,44.896-4.856,67.348-7.263c15.199-1.63,30.414-3.134,45.59-4.954c23.749-2.848,47.51-5.643,71.194-8.964  c23.67-3.32,47.271-7.147,70.869-10.958c28.194-4.553,56.428-8.922,84.51-14.104c36.578-6.749,73.021-14.236,109.535-21.337  c2.595-0.505,5.3-0.585,7.956-0.609c4.527-0.042,7.478,3.215,6.312,7.975c-5.055,20.655-10.435,41.231-15.71,61.833  c-0.904,3.529-3.235,5.635-6.703,6.63c-3.2,0.918-6.311,2.266-9.563,2.862c-38.549,7.077-77.078,14.267-115.688,20.986  c-37.292,6.49-74.613,12.855-112.034,18.535c-24.95,3.787-50.107,6.205-75.154,9.375c-15.811,2-31.623,4.039-47.373,6.464  c-13.152,2.025-26.443,1.943-39.672,4.135c-19.611,3.247-39.701,3.55-59.565,5.352c-23.816,2.161-47.608,4.58-71.412,6.886  c-1.326,0.129-2.65,0.293-3.979,0.363c-29.898,1.586-59.862,2.383-89.679,4.921c-43.199,3.677-86.571,1.947-129.707,4.705  c-77.933,4.981-155.848,1.589-233.763,2.346c-37.127-4.819-74.695-0.663-111.689-4.499c-29.838-3.094-59.99-0.042-89.528-6.119  c-1.933-0.398-3.992-0.344-5.984-0.27c-28.052,1.049-55.771-3.589-83.654-5.291c-33.775-2.062-67.379-6.932-101.061-10.557  c-27.748-2.986-55.564-5.434-83.235-9.017c-32.266-4.179-64.427-9.19-96.593-14.105c-27.574-4.213-55.135-8.551-82.623-13.287  c-32.73-5.64-65.499-11.169-98.03-17.823c-45.557-9.316-90.907-19.635-136.352-29.499c-4.59-0.997-9.275-2.09-12.695,2.66  c-27.84-5.571-55.036-13.743-82.52-20.728c-70.372-17.884-139.901-38.73-208.817-61.597c-8.763-2.907-18.227-4.778-23.973-13.247  c-35.555-13.276-71.255-26.179-106.638-39.9c-118.253-45.855-232.582-99.898-341.245-165.515  c-90.984-54.94-176.688-117.049-253.547-190.724c-63.381-60.755-118.225-128.414-161.259-205.216  c-36.193-64.593-59.282-133.657-70.761-206.807c-11.986-76.383-5.005-151.259,15.078-225.487  c20.636-76.273,56.386-145.033,102.174-208.898c11.643-16.239,24.082-31.916,36.384-47.673c4.414-5.652,6.502-5.882,11.537-1.954  c16.771,13.081,33.422,26.317,51.067,40.243c-3.231,7.41-8.413,12.547-12.852,17.996c-33.838,41.538-62.312,86.468-85.287,134.841  c-20.963,44.138-36.817,90.013-44.146,138.463c-6.101,40.331-7.279,80.852-3.417,121.566  c9.807,103.386,52.912,193.151,112.831,275.877c40.067,55.318,87.733,103.736,138.906,148.804  c81.455,71.736,171.679,130.646,266.602,182.727c118.899,65.235,243.402,117.62,371.382,162.022  C1085.946,3740.52,1092.035,3743.709,1098.988,3742.98z"
     id="path13" /><path
     fill-rule="evenodd"
     clip-rule="evenodd"
     fill="#FCB326"
     d="M2499.58,4717.681c-6.617-0.362-13.234-1.038-19.853-1.043  c-90.266-0.069-180.531-0.062-270.797-0.012c-5.294,0.003-10.588,0.514-15.878,0.79c-41.272-0.181-82.547-0.363-123.822-0.543  c-3.329-0.014-6.658,0.004-9.987-0.002c-20.403-0.037-21.429,1.475-24.883-20.811c-10.693-69.002-22.814-137.783-34.449-206.639  c-7.424-43.932-15.479-87.766-22.114-131.815c-1.764-11.706-7.055-17.249-17.327-21.369c-48.146-19.31-96.077-39.153-144.081-58.813  c3.585-2.959,6.94-6.25,10.781-8.813c81.405-54.323,162.967-108.414,244.174-163.031c9.063-6.096,16.287-6.172,25.686-1.636  c56.357,27.197,113.82,51.903,171.891,75.214c30.866,12.391,61.536,25.278,92.504,37.406c9.736,3.813,14.551,9.425,16.078,20.155  c4.216,29.618,9.694,59.057,14.676,88.566c5.535,32.787,11.086,65.574,16.604,98.365c7.614,45.243,15.215,90.488,22.794,135.738  c1.647,9.838,3.145,19.701,4.779,29.541c0.747,4.5,3.573,7.182,8.041,7.464c5.974,0.378,11.978,0.367,17.968,0.369  c65.939,0.021,131.878-0.03,197.816,0.075c7.219,0.012,14.713-1.471,21.518,2.484c4.284,5.829,4.27,12.543,3.291,19.143  c-4.09,27.609-8.82,55.115-13.744,82.592c-2.5,13.949-10.37,21.136-24.547,20.823  C2597.649,4720.8,2548.408,4726.434,2499.58,4717.681z"
     id="path15" /><path
     fill-rule="evenodd"
     clip-rule="evenodd"
     fill="#FCB326"
     d="M1052.929,3808c11.988,3.893,23.977,7.786,35.965,11.678  c83.288,27.037,167.395,51.242,252.545,71.661c10.12,2.427,18.112,7.657,26.801,12.235c3.901,3.607,7.93,7.092,11.687,10.848  c97.007,96.97,193.995,193.959,290.932,290.998c4.192,4.196,9.215,7.75,11.656,13.48c-43.847,29.115-87.703,58.21-131.521,87.364  c-56.033,37.282-112.032,74.614-168.057,111.909c-2.217,1.475-4.484,2.897-6.831,4.15c-3.272,1.746-6.44,1.344-9.157-1.186  c-3.412-3.178-6.747-6.441-10.045-9.738c-135.747-135.729-271.503-271.449-407.204-407.225  c-16.19-16.199-17.217-13.328-3.169-34.232c31.966-47.565,63.672-95.307,95.339-143.072  C1045.887,3820.811,1050.959,3815.291,1052.929,3808z"
     id="path17" /><path
     fill-rule="evenodd"
     clip-rule="evenodd"
     fill="#ACAD36"
     d="M3916.971,2207.245c13.898-21.677,29.514-42.083,45.878-61.921  c34.335,17.697,68.894,34.971,102.969,53.15c85.437,45.58,166.483,98.009,242.47,158.072  c84.685,66.939,159.764,142.957,219.895,233.185c49.451,74.2,83.252,154.713,98.35,242.585c6.762,39.354,9.638,79.062,6.979,119.347  c-7.91,119.833-50.393,226.511-119.145,323.788c-58.587,82.896-129.9,153.405-209.539,215.793  c-85.235,66.771-176.646,123.876-272.879,173.375c-7.083,3.644-13.882,7.842-20.814,11.783c-4.34,1.629-8.874,2.867-12.985,4.943  c-38.661,19.518-77.929,37.697-117.777,54.678c-44.716,19.057-89.829,37.089-135.562,53.524  c-35.073,12.604-70.373,24.587-105.682,36.525c-15.117,5.112-30.492,9.464-45.794,14.018c-2.352,0.699-4.902,2.174-7.253,0.406  c-2.149-2.686-0.929-5.16-0.174-7.667c5.947-19.747,12.548-39.332,17.531-59.32c2.579-10.349,7.571-15.54,17.665-18.928  c37.223-12.492,74.273-25.54,111.084-39.202c45.556-16.907,90.856-34.51,135.062-54.786c26.629-12.215,53.353-24.22,79.981-36.433  c6.034-2.767,12.248-5.337,17.127-10.108c0.502-7.025,6.916-7.347,11.317-9.575c107.341-54.328,210.244-115.797,302.381-193.616  c91.736-77.481,173.254-163.531,226.126-273.705c66.81-139.219,68.331-278.779,5.065-418.859  c-45.814-101.442-117.178-183.503-199.557-257.01c-109.409-97.625-233.744-171.812-364.949-235.545  C3934.767,2220.897,3923.11,2218.061,3916.971,2207.245z"
     id="path19" /><path
     fill-rule="evenodd"
     clip-rule="evenodd"
     fill="#FCB326"
     d="M2024.26,1363.728c5.271,0.294,10.541,0.837,15.812,0.843  c60.832,0.06,121.663,0.069,182.495-0.011c5.923-0.008,11.845-0.703,17.767-1.08c5.992-2.999,12.119-5.535,18.978-5.607  c39.28-0.418,78.562-0.473,117.841,0.051c6.743,0.09,13.302,1.286,18.298,6.544c1.998,12.897-2.776,25.067-4.627,37.458  c-5.104,34.179-11.781,68.12-17.591,102.196c-5.697,33.425-11.655,66.823-16.308,100.398c-1.569,11.321-6.709,16.825-17.062,18.566  c-31.669,5.326-61.759,16.075-91.734,27.014c-41.989,15.322-81.762,35.525-120.878,56.992  c-18.662,10.242-37.176,20.803-55.271,32.003c-6.954,4.304-11.687,3.33-17.768-1.177c-25.121-18.615-50.356-37.09-75.949-55.049  c-7.996-5.611-11.291-12.498-10.997-21.752c-4.735-6.807-2.335-14.244-1.214-21.211c12.002-74.606,23.711-149.265,37.217-223.618  c1.883-10.366,4.539-20.725,9.034-30.425c3.376-4.468,2.993-9.89,3.757-15.006  C2016.774,1366.071,2020.327,1364.723,2024.26,1363.728z"
     id="path23" /><path
     fill-rule="evenodd"
     clip-rule="evenodd"
     fill="#ACAD36"
     d="M920.35,2087.465c1.811,0.765,4.383,1.009,5.316,2.374  c13.389,19.583,28.659,37.981,38.286,59.959c-75.913,29.25-149.67,63.255-221.803,100.818  c-79.922,41.619-156.646,88.395-228.862,142.406c-2.132,1.595-4.277,3.175-6.453,4.709c-2.529,1.783-5.187,1.511-7.231-0.516  c-15.146-15.011-30.238-30.077-45.213-45.258c-2.125-2.154-1.696-5.073,0.617-6.989c5.128-4.248,10.397-8.336,15.736-12.318  c102.43-76.408,212.718-139.456,328.514-193.129C839.133,2121.039,879.23,2103.06,920.35,2087.465z"
     id="path43" /><path
     fill-rule="evenodd"
     clip-rule="evenodd"
     fill="#FCB326"
     d="M3312.072,4435.08c6.578-13.735,12.807-27.652,19.798-41.174  c29.919-57.869,55.716-117.562,79.694-178.084c11.98-30.239,23.652-60.582,33.41-91.636c4.933-1.089,8.825,0.778,12.761,3.695  c25.503,18.903,51.374,37.321,76.61,56.57c10.477,7.991,22.496,14.052,31.273,24.246c-26.197,26.478-52.321,53.034-78.624,79.413  c-47.455,47.594-95.014,95.084-142.54,142.605c-3.764,3.762-7.56,7.494-11.449,11.123c-2.781,2.594-6.059,2.616-9.179,0.779  C3319.818,4440.258,3315.982,4437.606,3312.072,4435.08z"
     id="path49" /><path
     fill-rule="evenodd"
     clip-rule="evenodd"
     fill="#ACAD36"
     d="M484.688,2451.141c1.883,44.172-33.782,88.064-86.999,87.785  c-54.172-0.284-86.403-44.924-86.719-86.457c-0.317-41.69,31.708-87.998,87.387-87.697  C455.098,2365.077,486.281,2412.021,484.688,2451.141z"
     id="path53" /><path
     fill-rule="evenodd"
     clip-rule="evenodd"
     fill="#02B0AB"
     d="M2012.302,1385.863c-0.7,7.928-0.869,15.944-2.181,23.77  c-12.301,73.386-24.87,146.728-37.155,220.116c-1.754,10.479-2.48,21.129-5.7,31.354c-3.848,2.445-5.716,9.081-12.713,3.673  c-17.078-13.198-34.796-25.565-52.133-38.434c-1.402-1.041-1.861-3.355-2.762-5.068c11.751-34.008,26.889-66.617,41.592-99.396  c17.993-40.114,38.109-79.189,58.827-117.955C2003.52,1397.482,2006.472,1390.695,2012.302,1385.863z"
     id="path71" /><path
     fill-rule="evenodd"
     clip-rule="evenodd"
     fill="#FFFFFF"
     d="M2687.728,3533.264c-3.948,0.548-7.938,1.781-11.837,1.543  c-67.517-4.129-133.205-16.506-196.729-40.699c-52.697-20.071-101.769-46.362-147.132-79.587  c-50.906-37.285-94.627-81.812-131.526-133.039c-38.1-52.894-66.835-110.503-86.394-172.606  c-13.433-42.652-22.43-86.226-26.858-130.859c-2.971-29.939-3.979-59.837-3.06-89.801c2.121-69.086,14.764-136.228,38.44-201.247  c24.882-68.329,60.871-130.244,107.793-185.7c26.317-31.104,55.659-59.229,87.935-84.17c5.23-4.042,11.189-7.141,16.812-10.675  c32.888-9.104,65.067-0.002,96.755,5.85c102.708,18.968,195.898,59.922,276.982,126.619  c119.058,97.935,193.967,222.603,219.035,374.69c29.049,176.238-2.029,340.805-105.94,488.859  c-31.954,45.53-69.288,86.096-113.21,120.398C2702.547,3527.717,2696.394,3533.121,2687.728,3533.264z"
     id="path79" /><path
     fill-rule="evenodd"
     clip-rule="evenodd"
     fill="#FCB326"
     d="M2687.728,3533.264c19.183-16.498,39.181-32.147,57.401-49.646  c63.381-60.867,110.878-132.506,143.351-214.23c18.802-47.321,31.489-96.263,38.396-146.518  c7.366-53.599,7.876-107.422,2.439-161.448c-4.831-48.002-14.798-94.716-30.039-140.298  c-22.388-66.953-55.562-128.189-99.596-183.489c-49.589-62.276-108.842-113.342-178.354-152.054  c-51.449-28.653-105.941-49.733-163.601-62.719c-40.431-9.105-81.289-13.979-122.548-16.438  c7.813-9.419,18.467-15.299,28.471-21.716c50.771-32.565,105.279-57.261,163.265-73.702c31.976-9.067,64.591-15.395,97.73-19.612  c47.22-6.011,94.469-5.192,141.647-2.75c35.194,1.821,70.001,8.426,104.247,17.188c86.394,22.106,164.878,60.144,234.34,116.379  c69.4,56.186,124.28,124.049,163.708,204.189c27.525,55.945,45.541,114.893,55.812,176.447c8.163,48.926,10.071,98.082,7.45,147.349  c-3.849,72.363-19.603,142.251-47.473,209.312c-25.272,60.812-59.8,115.717-102.734,165.667  c-60.668,70.584-134.567,122.797-219.662,159.267c-51.573,22.103-105.186,37.641-161.201,44.312  c-31.089,3.703-62.143,7.205-93.491,6.96C2700.711,3535.662,2693.896,3536.84,2687.728,3533.264z"
     id="path81" /><path
     fill-rule="evenodd"
     clip-rule="evenodd"
     fill="#FFFFFF"
     d="M3916.971,2207.245c38.473,16.797,75.734,36.061,112.646,55.972  c74.554,40.215,146.387,84.749,213.628,136.426c68.386,52.557,131.348,110.77,185.138,178.471  c51.062,64.268,90.64,134.754,113.729,213.812c17.182,58.828,21.311,118.842,15.458,179.906  c-8.278,86.354-41.318,163.327-86.831,235.736c-36.754,58.475-82.606,109.396-132.459,156.868  c-65.892,62.743-138.812,116.238-216.088,163.981c-44.782,27.668-90.721,53.281-137.705,77.009  c-6.504,3.284-13.414,5.765-20.133,8.621c-7.424-10.245-14.846-20.499-22.281-30.743c-3.02-4.16-3.572-8.488-0.983-13.061  c1.969-3.479,3.901-6.978,5.915-10.43c44.49-76.264,80.153-156.403,105.773-240.948c2.509-8.277,4.961-16.579,7.117-24.952  c1.508-5.856,4.968-9.004,10.853-10.178c17.632-3.518,35.207-7.319,52.834-10.863c79.61-16.009,159.237-31.938,238.842-47.977  c11.411-2.299,11.995-3.152,12.447-14.057c0.165-3.992,0.034-7.996,0.034-11.994c-0.002-184.578-0.002-369.156-0.004-553.735  c0-4.664,0.144-9.337-0.078-13.991c-0.438-9.219-1.906-11.43-11.472-13.392c-14.999-3.075-30.131-5.522-45.232-8.081  c-45.288-7.676-90.575-15.364-135.89-22.885c-54.498-9.043-109.024-17.914-163.536-26.88c-3.282-0.54-6.547-1.202-9.801-1.897  c-6.354-1.359-10.591-4.619-12.241-11.448c-2.186-9.042-5.048-17.932-7.873-26.806c-19.26-60.501-46.508-117.612-74.256-174.501  c-11.682-23.949-23.446-47.862-35.563-71.592c-3.164-6.196-2.767-11.02,1.321-16.47  C3892.67,2240.646,3904.762,2223.902,3916.971,2207.245z"
     id="path83" /><path
     fill-rule="evenodd"
     clip-rule="evenodd"
     fill="#FFFFFF"
     d="M2395.45,1364.467c-44.429-0.05-88.856-0.062-133.286-0.185  c-7.277-0.02-14.555-0.521-21.831-0.801c16.167-25.29,35.54-48.159,54.896-70.927c24.998-29.404,51.902-57.094,80.797-82.76  c52.911-46.999,113.158-81.508,179.857-104.759c9.959-3.472,20.641-5.061,31.1-6.883c50.418-8.784,100.719-7.17,150.689,3.175  c10.963,2.27,21.448,6.986,32.036,10.895c64.56,23.827,121.132,60.537,171.672,106.881c8.31,7.619,16.619,15.293,23.015,24.719  c-8.649,0.169-17.3,0.488-25.95,0.489c-165.78,0.029-331.562,0.021-497.342,0.023c-23.909,0-24.093-0.021-28.25,23.987  c-4.428,25.565-8.362,51.217-12.737,76.792C2398.998,1351.641,2397.028,1358.02,2395.45,1364.467z"
     id="path85" /><path
     fill-rule="evenodd"
     clip-rule="evenodd"
     fill="#01B0AB"
     d="M3347.674,2152.866c-5.082-55.614,43.755-113.763,97.931-125.766  c65.183-14.442,132.974,21.34,152.358,84.515c13.586,44.279,7.461,85.273-21.428,122.272c-19.229,24.626-44.185,39.538-74.67,45.952  c-44.555,9.376-83.359-3.138-115.95-33.028c-23.736-21.771-37.212-49.939-38.225-83.001  C3347.567,2159.815,3347.674,2155.812,3347.674,2152.866z"
     id="path87" /><path
     fill-rule="evenodd"
     clip-rule="evenodd"
     fill="#FFFFFF"
     d="M2499.58,4717.681c13.963-0.271,27.924-0.726,41.888-0.776  c31.945-0.117,63.892-0.035,95.837-0.039c4.658,0,9.324,0.134,13.975-0.07c10.073-0.443,11.361-1.478,13.033-11.145  c3.852-22.28,7.622-44.576,11.291-66.889c2.157-13.119,4.058-26.281,6.084-39.432c5.562-2.907,11.586-2.381,17.527-2.381  c84.76-0.007,169.52-0.023,254.28,0.043c5.179,0.004,10.677-1.16,15.265,2.605c-35.989,38.82-77.309,70.936-122.668,98.095  c-31.559,18.896-65.227,33.139-99.962,44.585c-14.987,4.939-31.167,7.047-46.984,8.53c-43.894,4.116-87.783,3.663-130.913-6.641  C2544.278,4738.443,2521.814,4728.204,2499.58,4717.681z"
     id="path89" /><path
     fill-rule="evenodd"
     clip-rule="evenodd"
     fill="#FFFFFF"
     d="M3031.876,1317.99c21.072,23.211,38.664,49.083,56.062,74.988  c35.985,53.581,67.305,109.902,95.375,167.998c13.577,28.1,26.429,56.553,39.414,84.935c2.468,5.396,4.021,11.211,5.996,16.832  c-1.855,6.412-4.907,11.175-12.79,9.274c-10.5-4.102-21.021-8.148-31.495-12.314c-33.935-13.498-68.179-26.084-103.535-35.424  c-3.203-0.847-6.451-1.55-9.608-2.543c-6.339-1.993-9.777-6.207-10.417-13.021c-1.427-15.196-3.138-30.366-4.77-45.543  c-5.607-52.146-11.213-104.291-16.856-156.432c-2.785-25.732-5.652-51.455-8.485-77.182  C3030.332,1325.623,3029.338,1321.639,3031.876,1317.99z"
     id="path91" /><path
     fill-rule="evenodd"
     clip-rule="evenodd"
     fill="#FBB327"
     d="M3223.545,4196.018c-4.88,16.536-12.875,31.781-20.096,47.303  c-12.797,27.502-25.545,55.055-40.756,81.359c-21.289-3.581-34.771-18.123-47.445-33.796c-0.04-20.808,5.735-40.778,8.805-61.14  c0.951-6.302,5.49-8.583,11.129-9.68c20.918-4.069,41.33-10.061,61.652-16.377  C3205.684,4200.938,3213.947,4196.157,3223.545,4196.018z"
     id="path93" /><path
     fill-rule="evenodd"
     clip-rule="evenodd"
     fill="#FDFDFD"
     d="M3115.248,4290.884c15.816,11.263,31.633,22.525,47.447,33.792  c-12.141,25.779-26.531,50.336-40.992,74.83c-9.755,16.523-20.244,32.613-30.41,48.903c-3.662-3.054-2.988-7.157-2.346-11.022  c5.656-33.984,11.154-67.998,17.277-101.9C3108.918,4320.572,3109.159,4305.121,3115.248,4290.884z"
     id="path95" /><path
     fill-rule="evenodd"
     clip-rule="evenodd"
     fill="#CFAE57"
     d="M3215.933,1672.018c4.263-3.089,8.526-6.177,12.79-9.27  c4.579,4.848,6.855,10.832,8.441,17.16C3227.938,1683.066,3222.145,1676.977,3215.933,1672.018z"
     id="path97" /></svg>